<svg width="20" height="21" viewBox="0 0 20 21" fill="none" xmlns="http://www.w3.org/2000/svg">
<path d="M10 0.244629C4.48 0.244629 0 4.72463 0 10.2446C0 15.7646 4.48 20.2446 10 20.2446C15.52 20.2446 20 15.7646 20 10.2446C20 4.72463 15.52 0.244629 10 0.244629ZM10 3.24463C11.66 3.24463 13 4.58463 13 6.24463C13 7.90463 11.66 9.24463 10 9.24463C8.34 9.24463 7 7.90463 7 6.24463C7 4.58463 8.34 3.24463 10 3.24463ZM10 17.4446C8.81186 17.4446 7.64218 17.1506 6.59528 16.5888C5.54837 16.0269 4.65678 15.2147 4 14.2246C4.03 12.2346 8 11.1446 10 11.1446C11.99 11.1446 15.97 12.2346 16 14.2246C15.3432 15.2147 14.4516 16.0269 13.4047 16.5888C12.3578 17.1506 11.1881 17.4446 10 17.4446Z" fill="url(#paint0_linear_108_605)"/>
<defs>
<linearGradient id="paint0_linear_108_605" x1="10" y1="0.244629" x2="10" y2="20.2446" gradientUnits="userSpaceOnUse">
<stop stop-color="#FE5F5F"/>
<stop offset="1" stop-color="#FC9842"/>
</linearGradient>
</defs>
</svg>
