<svg width="24" height="25" viewBox="0 0 24 25" fill="none" xmlns="http://www.w3.org/2000/svg">
<path d="M9.99998 19.2448V14.2448H14V19.2448C14 19.7948 14.45 20.2448 15 20.2448H18C18.55 20.2448 19 19.7948 19 19.2448V12.2448H20.7C21.16 12.2448 21.38 11.6748 21.03 11.3748L12.67 3.84484C12.29 3.50484 11.71 3.50484 11.33 3.84484L2.96998 11.3748C2.62998 11.6748 2.83998 12.2448 3.29998 12.2448H4.99998V19.2448C4.99998 19.7948 5.44998 20.2448 5.99998 20.2448H8.99998C9.54998 20.2448 9.99998 19.7948 9.99998 19.2448Z" fill="url(#paint0_linear_108_603)"/>
<defs>
<linearGradient id="paint0_linear_108_603" x1="12.0022" y1="3.58984" x2="12.0022" y2="20.2448" gradientUnits="userSpaceOnUse">
<stop stop-color="#FF4747"/>
<stop offset="1" stop-color="#FC9842"/>
</linearGradient>
</defs>
</svg>
